<svg id="ebiUvNEI0MX1" xmlns="http://www.w3.org/2000/svg" xmlns:xlink="http://www.w3.org/1999/xlink" viewBox="0 0 256 329" shape-rendering="geometricPrecision" text-rendering="geometricPrecision"><path d="M65.157906,173.201019c-8.304328-6.53279-17.164833-12.793025-23.21805-21.614421-12.742672-15.556046-22.551148-33.562527-29.256787-52.488027C8.628854,86.791033,7.240541,73.596842,2.010943,61.767127c-5.46297-8.594835.941157-17.983484,10.354433-20.714139c4.187937-.807443,11.556218-4.761186,2.661644-1.93173-7.975562,5.847997-8.743819-5.314812-.567249-6.02175c5.580509-.740156,7.634872-5.306295,5.72445-9.416757-5.992744-3.909453,14.526186-8.198779,4.200712-14.030593-10.748782-11.600599,15.041481-13.833842,8.677384-.656686-1.521183,10.13136,18.027632-1.861036,13.487932,9.84092c4.612096,5.620584,17.266189,1.281858,16.948495,9.162089c6.716711.461639,9.022333,6.109479,15.320847,6.543862c6.5387,2.952106,18.380246,5.273929,20.601548,12.637158-6.481635,5.129986-21.486491-10.59811-22.21131,3.604533c1.960673,20.98499,1.46071,42.601114,9.135613,62.583615c3.630056,12.098011,12.435199,21.621235,20.382654,31.045657c7.608468,9.227672,17.911797,15.728096,28.416133,21.197072c9.211416,4.343837,19.142541,7.222693,29.18439,9.033477c4.07125-3.113935,11.260669-14.692389,17.609434-9.813664.306621,5.492824-12.602137,11.473691-.605577,10.866406c7.050588-2.127628,11.935236,5.445979,17.738045-1.387473c5.347136,6.333484,22.22153-4.043175,18.418574,8.900607-5.146128,3.320054-12.648131,1.314224-17.799369,5.882066-8.493411-4.244184-15.256116,3.792766-24.662577,2.779204-10.44216,1.870405-21.069997,2.623337-31.656099,2.638668-17.371803-1.370438-35.109848-1.948764-51.635035-7.99777-9.31192-2.705103-18.395577-8.007991-26.578109-13.310879Zm14.670128,6.36074c9.08962,3.926488,17.979083,8.070167,27.942574,9.323066c15.80633,2.194915,32.129659,5.580553,47.991351,2.495577-7.178346-3.240843-14.602842,1.258861-21.753933-2.316713-8.57688,1.84315-17.782335-.473563-26.505712-1.615737-9.91409-4.415382-20.616879-7.450958-29.901544-13.189081-11.607321-4.23737,5.998706,5.43661,9.133909,6.222759c7.251595,4.113869-7.976414-2.112297-10.127022-3.821725-6.07451-3.408634-6.847877-2.695734-.599615.763152c1.257999.735897,2.500667,1.510122,3.819991,2.138701ZM62.52948,167.336839c8.811105,3.26384-.039179-6.1938-4.07125-5.646988-1.788625-3.102862-6.833397-5.063551-3.274886-6.728688-6.399017,2.223022-6.705639-8.449188-9.712231-6.922032-6.772925-2.138701-2.63524-9.714011-10.705344-14.368731-.735891-4.902573-8.014741-9.151868-10.331436-16.543204-1.024626-3.786804-8.225969-14.652358-3.803808-4.539735c3.764629,9.735305,10.386798,18.07973,15.900872,26.406269c4.277368,7.929631,9.334917,16.223804,17.126506,21.169816c2.629278,2.522832,5.162311,6.382033,8.870726,7.173293h.000852ZM37.155712,139.472404c.304918-1.331258,1.609762,2.878857,0,0Zm35.928356,31.773888c1.948749-.873878-2.807289-1.102142,0,0Zm4.778183,1.744349c-.494853-2.406997-2.182974,1.347441,0,0Zm5.987634,2.495577c2.845616-2.714472-4.394906-1.711983,0,0Zm10.259039,5.717682c1.731559-2.55605-5.542181-.962458,0,0ZM74.410206,167.471413c4.420458-2.863525-5.720192-.040031,0,0Zm4.488596,2.238354c-.128611-1.510122-1.59869.678831,0,0Zm22.438721,14.006744c3.608763,2.278385,21.069997,4.990302,10.137242.935203-1.833766.384983-20.273633-5.218566-10.137242-.935203ZM65.715787,155.969615c-.350911-1.513529-5.604357-1.67621,0,0Zm10.44216,6.094147c2.722968-1.899364-5.641833-1.46498,0,0Zm8.788109,5.385506c3.904312-1.470091-6.325769-1.476053,0,0ZM61.460564,151.341299c4.233078,3.245953,17.077106.417349,6.482486-1.937692-4.817362-2.567974-15.67772-4.326802-8.274518,1.54845l1.792031.389242ZM90.901324,169.3086c1.764776-3.002358-7.39724-1.716241,0,0Zm-8.945678-7.107709c10.34847,2.92485-8.704639-6.549824-2.555178-1.079997l1.365317.618358l1.189861.461639Zm17.935645,10.365587c9.801662.093691-8.856247-1.352552,0,0ZM57.690825,145.670463c-.38498-1.826115-2.417198.151608,0,0Zm58.780164,36.196936c.26148-3.296206-3.197379,2.456397,0,0ZM74.421278,155.9134c-.596208-1.737535-3.062807-.072397,0,0Zm-15.80122-11.38937c5.626502-.33899-7.70812-2.478542,0,0ZM39.900825,132.426019c-.70097-2.699993-6.120503-4.849766,0,0Zm49.14033,31.185341c-1.030588-1.176243-.485484.25552,0,0Zm30.581221,18.769633c-.09369-1.799711-1.665124.677979,0,0ZM86.334369,160.815122c.551918-2.316713-4.800328-.702679,0,0Zm-22.785373-14.44198c4.188788-.446308-6.711601-2.829456,0,0ZM102.0913,170.323014c6.526776-2.585009-6.36069-1.259713,0,0Zm-20.045371-13.60643c7.518185.967568-8.949936-5.118914-1.654052-.546812l1.654052.546812Zm26.130953,16.067086c7.024184-4.19308,4.707489,9.830699,11.914795,1.186464c7.10595-5.190459-6.138389,6.416102,2.617354.924982c6.337693-4.239074,15.693903,2.010089,21.604029,4.043175c4.248409-.206119,8.381835,3.676078,12.74182,1.313372c8.387797-2.26135-16.406797-3.351568-9.908128-7.357267-7.674051,2.234947-13.343139-2.661665-17.119692-7.579569-8.61095-1.988796-18.563367-6.387995-22.86288-14.012706-1.754555-2.856711,2.529626.407128-1.514369-4.271439-5.185308-4.612133-7.774555-9.853696-11.25641-15.461504-4.160681-2.21706-4.650424-8.74985-5.068621-.21634.034069-5.386358-5.02348-9.012184-6.260186-7.508024-.022145-5.1862,5.414422-2.585009,1.609762-6.422065-.817657-5.375285-3.514221-10.977131-4.322509-17.048282-1.257148-2.923998-.178862-9.189344-4.298661-2.567974-1.499038,7.001243-.495705-8.599093,1.838025-3.458035c3.062807-5.246673-1.103837-4.629167-1.270775-3.904343c1.994742-4.427307,1.264813-10.710539-.52296-8.315466c1.063806-4.695602,1.682159-17.276546-1.586765-15.043303c1.981966-4.911942,3.759518-22.468709-4.852283-15.772386-3.486114.0494-9.528258,1.264823-12.379837,2.684661c8.949936,4.934939-.90283,1.781825-4.550772.996527-.47356,4.566991-4.082323,2.59523-8.593915,2.63952c7.207305.890912-3.509111,7.367488-7.634872,4.851469-5.36928,2.562012,4.628279,8.967042.105614,10.949024.557881,2.980213-8.220859-1.079145-7.53522,5.815631-5.208304-2.195767-.712895,8.175782,1.893387,4.667495c8.861357,2.400183,6.238041,7.864048,6.460341,13.059617-1.442824,3.023651-7.128946-7.111968-1.264813-6.643515-4.628279-7.514838-5.11717-2.718731-8.961009.773373-.890905.251261,9.802514,4.967305,3.091765,7.295942c5.903313.913909,6.076213,6.082223,7.279702,9.352025c3.547439,3.69652,2.816658-4.084058,7.067622.361986-2.691454-3.960557-14.2366-11.157698-4.940011-8.849503-.051104-3.982702-1.683011-7.197141,1.168568-7.119634c2.824323-5.106989-2.957193,12.59883,3.403497,6.10522c1.758814-.768263,2.200008-5.112951,5.363318.412239c4.59421,4.522701,1.660014,7.795909-4.823324,3.653082c1.158347,3.93756,8.671422,5.340364,7.256705,11.495836c1.497334,5.413613,3.59258,3.418855,5.418681,3.107121c1.4309,5.257746,2.246001,1.392583,2.312436-1.114066c6.554883,1.405359,5.017518,5.280743,7.071881,7.987549c4.516703,2.037345-6.465452-13.818511,1.28781-4.768c8.157831,7.36834,3.062807,10.442243-4.260333,9.262593c4.633389-.374762,6.124761,6.266197,11.924164,6.031971c5.28496,2.51687,8.866467,12.174667-.245297,8.152785-3.1582-2.851601-14.348176-6.36585-5.207453-.946275c8.432087,3.909453,15.137726,6.243201,23.274264,11.150884c5.820695,4.154752,8.336694,8.915086,10.542664,9.857954-4.894869,2.338006-14.746783-1.866146-7.429606-3.152263-4.566955-.830439-9.701159-3.14119-5.330101,2.544977c3.720339,3.107973,13.171942,2.778352,14.871135,3.129266-1.436862,3.164187-3.90346,3.415448.055362,3.659895-4.417051,2.355893,1.420679,2.723841,1.826952,4.06532h-.000852Zm-9.033406-25.513653c-2.689751-2.812421-3.385611-8.075278-.47867-3.498918c1.493076.602175,4.773924,8.606759.47867,3.498918Zm29.424577,18.691274c1.676197-.110725.0494,1.274192,0,0Zm-33.667024-25.58605c-.107317-4.250146.967561,3.279171,0,0Zm-2.924827-3.93245c-3.385611-6.53279,4.260333,1.849112,0,0ZM56.531626,111.981879c1.98878-.530629.980337,3.395858,0,0Zm28.210016,15.28775c1.219672-4.584025,1.431751,3.84387,0,0ZM64.813809,113.411939c-1.402793-2.527943,2.935899,2.373779,0,0Zm17.098399,5.4809c-3.20249-7.173293,2.272405-3.921377.712895,1.175391l-.712895-1.175391ZM52.422048,99.226331c-1.4309-2.355041-3.798698-9.261741-3.035551-11.371483.684788,3.43589,7.301847,14.780969,3.240817,4.700713-4.482634-8.449188,5.36417,2.739172,6.377724,4.850618.47356,2.094411-2.768109-.573216-.574063,4.343837-4.003964-5.597587-2.361836,3.09179-6.008927-2.523684Zm-9.111764-6.281529c.373056-5.474938,2.083322,3.753586,0,0Zm4.099357,1.413876c1.954711-4.130904,3.313214,5.759416,0,0Zm-9.863838-7.62897c-3.392425-3.376268-5.848802-6.483389.160976-2.095262c2.311584.089432-5.145277-7.066826.557881-2.272423c5.991892,1.092773,2.956341,9.831551-.718857,4.367685Zm5.179346-.133722c1.972597-1.954727,1.047623,1.921509,0,0Zm3.191417,1.018672c-2.991262-5.597587,3.625797,2.350782,0,0Zm-6.337693-6.053264c-9.862987-8.784771,12.391761,4.588284,1.609762,1.625106l-1.609762-1.625106ZM67.843398,97.979394c-4.271406-2.556902-1.136202-18.016702.323656-7.445847c4.149609-1.343182-.229966,5.463865,2.861799,5.396578-.48378,4.292733-1.87039,5.837776-3.185455,2.049269Zm10.454085,6.181876c.417346-4.660681.879833,3.187184,0,0Zm-1.815028-1.798859c.467598-1.987944.04429,2.34482,0,0ZM41.510587,78.675724c-6.336841-8.74474,18.418574,8.843541,4.061029,2.21706-1.499038-.395204-3.308104-.534888-4.061029-2.21706Zm20.13395,10.672211c-.600467-7.363229,1.33721,1.217978,0,0Zm15.282519,9.805999c1.180492-4.19308.090283,2.774945,0,0ZM42.485813,75.339487c3.76548-.807443,15.605323,6.611149,4.733893,2.116556-1.207747-1.33722-3.786774-.729935-4.733893-2.117407v.000852ZM74.8267,91.457677c.402866-7.529317,2.251963-4.494593.017035,1.080849L74.8267,91.456825v.000852ZM45.28714,72.717002c1.536514-2.25113-4.078064-10.175651.806584-2.84138c2.11228,1.67621,6.10943,2.807311,2.579026,3.514249c5.552402,4.896611-1.352541,1.326148-3.385611-.672869ZM73.22801,89.107746c1.059547-8.576948.936899,5.023519,0,0ZM42.078688,64.79674c1.175382-.502522.623463,1.563781,0,0Zm7.290774,4.338726c1.875501-3.938412,3.458007,4.388127,0,0Zm20.556406,11.43366c-.017035-1.50927.389239,2.200026,0,0Zm-1.192416-2.633558c-2.851579-7.040422,2.657385,3.725479,0,0Zm-1.749445-4.618095c-.476967-2.907815,1.626797,3.653933,0,0Zm2.851579-4.633426c-1.959821-3.448666,2.474264-15.205132,2.969968-7.9143-2.067139,5.681057-.596208,8.856317.839802,1.236716c2.663347-5.992791-.573212,11.835678-3.80977,6.677584Zm2.929937-17.482665c.853429-1.047631.189935,1.26312,0,0Zm-4.894017,96.424659c-1.159199-1.013562.149052.641355,0,0Zm10.080177,5.096768c5.607764,1.442835,5.580509-.869619.511036-1.560374-2.722968-2.533053-11.327955-5.223677-3.624946-.311734.507629,1.29293,2.117391,1.258861,3.11391,1.872108Zm-19.904836-13.22315c3.084951,2.307344,11.633725,6.527679,4.399165.881543c2.439343-2.83627-4.667458-4.344688-2.310733-6.243201-5.998706-3.67182-4.735596-3.343051-.528922-3.225512-7.207305-3.225512,1.040809-2.980213.65157-4.633426-2.779182-.546812-13.80733-4.902573-7.318881.356024-6.594062-3.359234-1.571434,1.252899-3.564473.768263-6.74567-1.838039,6.004668,5.135948-1.069768,3.403524c3.865984,3.062831,10.409795,7.852975,1.631907,3.240843-1.152385,1.665137,6.283182,4.188821,8.109283,5.451941h.000852Zm10.541812,6.060078c12.815921,4.127497-6.288293-5.051627,0,0Zm53.968764,32.692908c.166938-2.544977-1.749445,2.171918,0,0Zm5.547291,2.333748c2.957193-2.861822.122649,4.566991,4.900831-.700976.0494-3.771472-.144793-5.997902-5.491077-1.41558-1.476893.819367-2.132722,4.288474.590246,2.117407v-.000852ZM40.05158,125.288499c-.908792-3.570463-6.366652-3.555132,0,0Zm5.919495,3.880494c-2.200008-3.647119-7.847803-3.302168,0,0Zm33.701093,20.323194c3.292773,2.92485,15.11047,2.144663,3.994595.362838-1.643831-2.434252-10.448974-1.849112-3.994595-.362838Zm46.321117,28.612257c5.062659-4.250146-4.905942,1.893402,0,0Zm10.532443,7.233766c.032366-1.364476-2.182974.596213,0,0Zm.017035-1.910436c5.607764-5.936577-5.430605.350914,0,0ZM25.481104,113.089984c-4.778183-6.817269-2.968265-9.880951-7.579509-15.450431-.875574-4.260367-7.908276-13.918164-3.63687-3.687151c3.909422,5.987681,5.06777,15.254533,11.217231,19.137582h-.000852Zm109.301142,68.449498c10.321215-6.667364-4.232226-2.901853,0,0Zm7.87591,3.084976c5.168273-4.43412-3.269776-.924982,0,0ZM38.296173,117.750665c1.476893-2.200026-3.819991-.283627,0,0Zm102.718152,64.76831c5.001335-3.223808-1.152385-2.728952-.907088.2947l.907088-.2947ZM73.133468,139.733886c-.172049-2.182991-2.644609.183974,0,0Zm4.193899,2.412107c-1.336358-2.695734-2.049253.423311,0,0Zm71.712771,42.551714c6.41009-4.624057-3.881315-.886654-1.34232.87984l1.34232-.87984Zm-2.455526-1.186464c5.223635-4.372796-5.508964,1.937692,0,0Zm12.540813,8.347832c3.504852-2.34482-4.259482-.75719,0,0ZM41.510587,116.163887c4.694714,1.05189,18.773744,11.567382,10.470267.729935-4.254371-1.258861-1.703452-11.657665-6.042144-9.819626c2.912903,4.867652,2.39335,6.933104-3.722042,3.871125-7.679161-3.754438-4.315695,1.855074-2.810696,3.403524-2.050956.467601,2.705933,1.776714,2.103763,1.814191l.000852.000852ZM20.106713,99.261252c.840654-3.481883-7.747299-19.137582-4.054216-7.847865c1.330396,2.366965,1.192416,6.849634,4.054216,7.847865Zm39.286712,24.220723c-2.422309-2.021162-.116686-.289589,0,0Zm5.953565,1.388324c0-3.688003-6.582138-1.49905,0,0Zm51.629925,32.542151c-.985447-2.518574-3.892388-.056214,0,0Zm2.478523,1.80908c-.368797-1.408766-1.432603.273406,0,0Zm20.461865,12.89353c1.966635-1.453056-2.456378-.188233,0,0ZM30.795022,101.990203c5.629909-2.178732-6.032775-1.554412,0,0Zm81.63623,51.42762c-.065583-3.642009-3.591728.908799,0,0ZM28.572018,96.804003c3.614725-1.217978-3.347283-.800629,0,0Zm10.493264,5.084844c-.062176-1.196684-1.108095.45738,0,0Zm128.014413,78.502499c4.650424-.941165,15.249302,2.367817,16.958716-1.229902-5.646943-.139684-19.53178-3.988664-20.189312.912206l1.236706.195899l1.994742.121798h-.000852ZM42.40064,102.730359c.085173-3.693113-2.878834-.138832,0,0ZM14.811533,83.587667c-1.252889-7.035312-4.767962-1.064666,0,0Zm6.577028,1.654065c.084321-2.26135-6.021703-2.033086,0,0Zm3.759518,1.849112c-1.085951-.880692-.846616,1.107253,0,0Zm23.664354,15.177025c1.114909-1.025486-2.639499-.75719,0,0ZM22.647412,82.925018c-.639646-5.313109-7.624651-.79637,0,0ZM9.151814,74.169206c-.189935-2.450435-1.315065.92413,0,0Zm2.010073-1.513529c-.327914-2.908667-1.726449.366245,0,0ZM22.2471,79.271085c4.689603-1.838039-8.539405-3.8098-.958192-.344952l.958192.344952Zm148.392808,91.663473c3.001482-2.751097-3.80977-.851733,0,0Zm17.92798,9.289849c1.203489-3.552577-3.030441.468453,0,0ZM23.379896,73.462268c.496556-3.441-3.719487.684793,0,0ZM7.603376,62.892265c-.846616-4.85658-.729929-13.384128,7.374243-10.504419-10.81692,2.149773,7.49093,13.448859,5.179346,4.526959c4.54992.224006,8.900536-2.68892,6.510593,1.726462c8.966971-.985455,15.177757-8.760071,23.837255-7.668149c6.743966-.896023,14.11821-1.570595,21.386839-4.288474c5.975709-.429273,11.728267-6.86241,8.455084-10.677321-8.148462-.689903-16.681905.328769-25.687203,2.122518-9.979673,2.071414-19.046296,6.014085-29.117104,7.708181-9.819549,1.320186,1.971746,3.630936-.841505,4.14879-5.118873,1.776714,6.110282,2.974251-.662643,4.850618-4.181974-.795518-8.537701-2.232391-6.749928-6.643515-9.401351,1.224792-17.6665,5.123172-10.236043,14.691537l.551918.00511-.000852.001703ZM30.2661,51.351287c2.200008-8.119568,11.806625,6.684398,3.608763,1.080849-.975226-.735897-2.59095-1.33211-3.608763-1.080849Zm.427566-3.938412c3.181196-2.366113,1.688121,1.33211,0,0Zm4.038033.068139c.29129-3.737403,9.252299,1.976872,1.476893,1.342331L34.7317,47.480162v.000852Zm5.525146-2.222171c2.021997-2.362707.585987,2.093559,0,0Zm1.415569-.946275c3.363466-4.038065,19.030113-2.579898,7.562475-.396907-3.074731-2.316713-5.429753,1.364476-7.562475.396907Zm20.44994-3.153114c-.505925-11.034197,10.164498,3.915415,0,0Zm5.804512-.034069c2.120798-5.557556,8.23619-2.232391.985447-1.119177.155014.596213-.21719,2.874598-.985447,1.119177ZM21.093012,70.610667c6.336841-3.882198-6.728635-3.368603,0,0Zm4.688751,1.298041c2.223005-2.361003-4.834397-.958199,0,0ZM11.970175,62.112078c3.619835-2.785166-4.28844-1.057852,0,0ZM199.14888,179.210845c.105614-3.230622-2.768109,1.453056,0,0Zm-19.019893-12.982962c.539994-3.713555-2.444454.323658,0,0Zm24.24949,14.236712c5.063511.017035,15.342992-1.577409,4.326768-1.571447-1.731559.268296-10.074215.212933-4.326768,1.571447ZM29.904117,69.629471c4.099357-.278517,6.41009-4.51759-.797216-4.277402-11.166127-1.152394,9.851914,3.826835-1.4309,2.401034-1.514369,1.002489,2.137832,2.154884,2.228115,1.876367Zm3.608763,1.827818c-.42927-2.629299-1.270775,1.396842,0,0Zm4.282478-11.418329c1.7767-2.205988-2.461488-.590251,0,0ZM24.160929,37.255111c7.318881-2.483653,17.321551-5.279891,20.7753,1.226495-3.515073-4.227149-1.419827-8.393826,1.899349-2.205988c4.694714,6.255125,7.043774-2.845639,3.99204-4.946012c3.481856,4.321692,7.435568,6.366702,2.327767.274258c5.553253-6.678436-11.110765.873878-14.897539.795518-1.82099.817663-18.813775,4.332764-14.096065,4.855728h-.000852Zm4.28844-8.208148c4.172606-3.146301,14.430793,1.876367,7.847803-3.130969-.645608-.567254-14.412907,3.798728-7.847803,3.130969Zm15.210974.628579c4.878686.12265-2.104615-6.560897,3.709267-3.531284-.95223-3.118193-6.772073-3.703334-9.61769-4.95027-1.609762,2.851601,3.273183,8.520734,5.908423,8.481554ZM31.116975,15.868103c1.688121-2.288606-2.962303,1.164319,0,0Zm6.2176,1.486274c7.868244-1.040817-2.006666-3.385637-1.589321-.082618l1.588469.082618h.000852ZM25.725549,8.27661c-5.542181-7.234618,10.420867,1.214571,4.789255-6.36074-4.739003-3.769769-9.288923,4.250146-4.789255,6.36074ZM96.819116,46.567957c2.54155-4.501407-10.48645-6.071151-1.709414-1.594444.807436.268296.625167,1.905326,1.709414,1.594444ZM45.233481,214.206838c-.562139,2.219615-.910495,5.944242-1.040809,11.172178c0,1.02719-.462487,1.541636-1.390017,1.541636s-1.573138-.448863-1.938528-1.342331c-.993112-2.417217-1.933418-4.102796-2.831137-5.065254-1.057844-1.124287-2.464895-1.80397-4.220302-2.035641-1.886573-.298106-6.586397-.44716-14.100323-.44716-1.720486,0-2.84732.183123-3.37539.548516-.331321.229968-.496556.72738-.496556,1.48968v22.493409c0,.761449.479522,1.124287,1.437713,1.092773c2.947824-.034069,7.217526-.235078,12.809959-.596213c1.093616-.134574,1.831211-.489746,2.211081-1.069776.383277-.579178.755481-2.074821,1.117464-4.49289.229966-1.324444,1.010147-1.838039,2.333729-1.538229c1.124278.231671,1.608059.745266,1.441972,1.538229-.928381,4.503963-1.228189,10.363032-.896867,17.579763.034921.858547-.511036,1.323593-1.637869,1.390028-.928381.099653-1.507555-.397759-1.737521-1.490532-.85854-4.136866-2.458933-6.347964-4.790107-6.630739-2.333729-.279368-6.134982-.420756-11.396093-.420756-.596208,0-.893461.213785-.893461.644762v22.345207c0,1.655768.610688,2.782611,1.834618,3.376268.96245.49656,3.030441.944572,6.206527,1.341479c1.624241.165236,2.333729.878988,2.137832,2.134442-.200156,1.092773-1.654904,1.52375-4.371909,1.292079-7.844396-.630282-14.317514-.596213-19.41339.101356-1.424938.195899-2.134425-.38328-2.134425-1.738386c0-.862805.709488-1.358514,2.134425-1.490532c3.244224-.365393,4.865059-3.212736,4.865059-8.540324v-42.508275c0-2.182139-.39009-3.861756-1.166013-5.037999-.779329-1.175391-2.228115-2.244316-4.343802-3.203367-1.325286-.596213-1.82099-1.406211-1.49052-2.4334.165235-.627727.430973-.976937.792957-1.041669.331321-.100504,1.210303-.034069,2.630982.199305c2.086729.330472,7.003743.49656,14.748487.49656c9.138168,0,17.031112-.200157,23.686499-.596213c2.217043-.134574,3.327693.048549,3.327693.545109c0,.134574-.017035.264889-.051955.396907ZM77.434685,277.24102c0,1.324444-.74526,1.903623-2.234077,1.737535-4.565251-.430977-10.227525-.366245-16.980009.19675-1.358503.134574-2.192343.099653-2.509185-.096246-.315139-.200157-.470153-.745266-.470153-1.642141c0-.792111.900274-1.461573,2.70423-2.010089c1.806511-.544257,2.705933-2.175325,2.705933-4.888946v-44.939121c0-2.682958-.389239-4.652164-1.165161-5.911025-.779329-1.258009-2.144646-2.234095-4.096802-2.927405-1.027182-.366245-1.541624-.878988-1.541624-1.541636c0-.99312.74526-1.737535,2.234929-2.234095c2.251963-.728231,4.586544-1.851667,7.003743-3.376268c1.986225-1.192426,3.245076-1.786083,3.772294-1.786083c1.22393,0,1.838876.841512,1.838876,2.530498c0-.130315-.066435,1.524602-.201007,4.965602-.096245,3.276616-.130314,6.503831-.096245,9.684201l.195897,44.341204c0,2.02031.497408,3.486142,1.49052,4.396644.993112.909651,2.699971,1.513529,5.113763,1.810784c1.488817.164384,2.234077.72738,2.234077,1.688986v.000852Zm44.910658-2.928257c0,.696717-1.265665,1.746052-3.796994,3.151411-2.533885,1.407914-4.561844,2.111445-6.083027,2.111445-1.29292,0-2.433381-.627727-3.426494-1.886588-.993112-1.258009-1.690676-1.885736-2.086729-1.885736-.297252,0-1.869538.678831-4.718562,2.033938-2.843913,1.358514-5.709119,2.038196-8.588805,2.038196-2.713599,0-4.982597-.79637-6.802735-2.382296-1.986225-1.756273-2.979337-4.139421-2.979337-7.152851c0-5.727051,6.554883-9.830699,19.664649-12.3135c2.248557-.430977,3.393276-1.341479,3.423938-2.731507l.101355-3.178666c.199304-5.428092-2.20086-8.141713-7.200491-8.141713-1.424086,0-2.772368,1.272489-4.049105,3.820873-1.271627,2.551791-3.102838,3.923933-5.485967,4.12409-2.713599.262334-4.072102-.878988-4.072102-3.427372c0-1.590185,2.020294-3.441,6.058327-5.561815c4.238188-2.21706,8.311142-3.32772,12.217157-3.32772c6.718414,0,10.045256,3.196553,9.979673,9.5854l-.200156,20.456064c-.030662,2.152329.879833,3.227215,2.731485,3.227215.36539,0,1.061251-.081766,2.085877-.247854c1.028033-.165236,1.624241-.248706,1.790328-.248706.958192,0,1.437713.648169,1.437713,1.937692Zm-15.29274-11.319528c.034069-.828736-.159273-1.377252-.573212-1.638734-.413939-.264889-1.064657-.317696-1.95897-.151608-7.978969,1.424097-11.968453,4.023585-11.968453,7.796761c0,3.807245,2.068842,5.710016,6.206527,5.710016c1.655755,0,3.362614-.313438,5.113763-.941165c2.055215-.730787,3.079841-1.606368,3.079841-2.634409l.100504-8.141713v.000852Zm52.20995,5.606956c0,3.509139-1.352541,6.300267-4.048254,8.368274-2.697416,2.06971-6.379427,3.103714-11.048589,3.103714-3.110503,0-6.224413-.330472-9.334917-.99312-2.682937-.596213-4.238188-1.141322-4.66831-1.637882-.265739-.465898-.396904-2.730655-.396904-6.803641c0-1.754569.396904-2.665923,1.192416-2.730655.793809-.100504,1.473486.331324,2.035625,1.289523c2.481929,4.337875,6.488448,6.507238,12.017002,6.507238c4.664903,0,6.999484-1.624254,6.999484-4.869356c0-1.42069-.52807-2.613968-1.589321-3.573019-1.159199-1.092773-3.406904-2.367817-6.751632-3.82428-4.834397-2.150625-8.062438-4.037213-9.683273-5.661467-1.755407-1.7205-2.631833-4.037213-2.631833-6.951842c0-3.576426,1.373834-6.354778,4.121502-8.341018c2.548364-1.921509,5.958675-2.879708,10.227525-2.879708c2.682937,0,5.131649.212933,7.352099.644762c2.383129.430977,3.624094.959051,3.723746,1.589333.262332,1.851667.810843,4.534625,1.638721,8.045467.099652.42757-.366242.775928-1.390017,1.040817-1.093616.231671-1.82099.048549-2.186381-.545109-2.613947-4.272291-5.923754-6.406733-9.931125-6.406733-4.534589,0-6.802735,1.456463-6.802735,4.369389c0,1.623403.613243,2.912926,1.837173,3.871977c1.093616.827884,3.658163,2.120814,7.697048,3.876236c4.237337,1.820153,7.117022,3.458886,8.641612,4.914498c1.986225,1.885736,2.979337,4.420493,2.979337,7.596604Zm58.417329,8.690229c0,1.158356-.779329,1.771604-2.334581,1.837187-2.317546.034069-5.348839.199305-9.086213.49656-1.855059.365393-3.179493.134574-3.97245-.69331-5.231301-5.627398-9.668793-11.520536-13.310773-17.679416-.296401-.528074-.67627-.792963-1.141313-.792963-.562139,0-1.537365.49656-2.927382,1.490532-1.558659.858547-2.334581,2.085042-2.334581,3.670968c0,1.127694.030662,2.748541.099652,4.870208.066435,2.116556.593653,3.505732,1.586765,4.16838.69586.465898,2.303919.827884,4.81651,1.093625c1.556103.199305,2.335433.778484,2.335433,1.737535c0,.762301-.124352,1.235012-.373056,1.413876-.247001.182271-.90283.224006-1.962377.124353-3.309807-.296403-8.903092-.131167-16.781557.49656-1.986225.165236-3.062807-.08347-3.228041-.745266-.065583-.229968-.100504-.562144-.100504-.99312c0-1.023783,1.010999-1.80397,3.032144-2.330341c1.820138-.46675,2.729782-2.601192,2.729782-6.407585v-43.40004c0-2.71362-.264035-4.600208-.796364-5.658912-.727374-1.358514-2.251963-2.418069-4.568658-3.179518-1.090209-.361986-1.637869-.875581-1.637869-1.538229c0-.962458.779329-1.706872,2.333729-2.234095c2.502331-.836987,4.888116-1.988675,7.099988-3.427372c1.821842-1.189871,2.948675-1.786935,3.376242-1.786935c1.359355,0,2.03818.858547,2.03818,2.583305c0-.234226-.017035,1.407062-.051955,4.914498-.035719,3.244407-.051618,6.489001-.047697,9.733601l.099652,31.083133c0,.861953.230818,1.289523.693305,1.289523.496556,0,1.258851-.42757,2.286032-1.289523c2.747668-2.152329,6.12391-4.965602,10.127873-8.441523.796364-.827032,1.192416-1.48968,1.192416-1.986241c0-.892616-1.340617-1.524602-4.020147-1.885736-1.158347-.135425-1.706859-.779335-1.642128-1.938544.100504-1.158356.680529-1.654917,1.738373-1.48968c2.386536.332176,5.86243.514447,10.427681.548516c3.179493.030662,6.3411.048549,9.486524.048549c1.023775.034069,1.538217.644762,1.538217,1.838039c0,1.124287-.810843,1.737535-2.431678,1.838039-2.551771.096246-4.951935.675424-7.19964,1.737535-3.145424,1.42069-6.507186,3.920526-10.082732,7.496951-.262332.199305-.396904.44716-.396904.744414c0,.462491.562139,1.57315,1.689824,3.32772c4.137685,6.290046,8.044552,11.038456,11.717194,14.251191c2.351615,2.018606,4.551624,3.02791,6.603431,3.02791c1.524589,0,2.468302.107318,2.830285.323658.366242.215488.549363.787001.549363,1.711983Z" transform="translate(18.999885 18.730423)" fill="#ffd200"/></svg>
