<svg id="e3GsZmP8d2I1" xmlns="http://www.w3.org/2000/svg" xmlns:xlink="http://www.w3.org/1999/xlink" viewBox="0 0 14 14" shape-rendering="geometricPrecision" text-rendering="geometricPrecision"><path d="M8.5,7.5C8.5,6.67157,9.17157,6,10,6h1.5c.2761,0,.5.22386.5.5s-.2239.5-.5.5L10,7c-.27614,0-.5.22386-.5.5v.5c0,.27614.22386.5.5.5h.5c.8284,0,1.5.67157,1.5,1.5v.5c0,.8284-.6716,1.5-1.5,1.5L9,12c-.27614,0-.5-.2239-.5-.5s.22386-.5.5-.5h1.5c.2761,0,.5-.2239.5-.5v-.5c0-.27614-.2239-.5-.5-.5h-.5c-.82843,0-1.5-.67157-1.5-1.5v-.5ZM8,6.5c0-.27614-.22386-.5-.5-.5s-.5.22386-.5.5v4c0,.2761-.22386.5-.5.5h-1c-.27614,0-.5.2239-.5.5s.22386.5.5.5h1c.82843,0,1.5-.6716,1.5-1.5v-4Z" transform="matrix(1.085549 0 0 1.085549-1.727167-1.769941)" fill="#ffd200"/><path d="M2,4.5C2,3.11929,3.11929,2,4.5,2h7C12.8807,2,14,3.11929,14,4.5v7c0,1.3807-1.1193,2.5-2.5,2.5h-7C3.11929,14,2,12.8807,2,11.5v-7ZM4.5,3C3.67157,3,3,3.67157,3,4.5v7c0,.8284.67157,1.5,1.5,1.5h7c.8284,0,1.5-.6716,1.5-1.5v-7c0-.82843-.6716-1.5-1.5-1.5h-7Z" transform="matrix(1.08555 0 0 1.08555-1.6844-1.6844)" fill="#ffd200"/></svg>
