<svg id="eKVvn4JTlBW1" xmlns="http://www.w3.org/2000/svg" xmlns:xlink="http://www.w3.org/1999/xlink" viewBox="0 0 64 64" shape-rendering="geometricPrecision" text-rendering="geometricPrecision"><path d="M39.755,53.777c-.346996.00067-.668747-.181288-.847-.479L31.453,40.863L17.51,44.653c-.436636.105059-.889052-.098529-1.1-.495L0.117,13.534c-.152787-.284728-.156206-.626286-.009149-.914015s.425885-.485032.746149-.527985l13.833-1.86c.390591-.054015.775756.130109.979.468l16.7,27.87l19.406-5.277-6.47-9.14c-.190408-.263549-.238494-.604084-.128506-.910051s.36388-.537948.678506-.619949l9.08-2.146c.369992-.088166.757683.044567.996.341l7.857,9.8c.208324.259359.27166.606347.168401.92258s-.359163.558979-.680401.64542l-8.253,2.25l7.224,10.18c.179987.252632.230456.57529.13621.870817s-.322195.529395-.61521.631183L40.07,53.706c-.100644.037306-.206709.057911-.314.061l-.001.01ZM33.427,40.324l6.757,11.268l19.692-6.894-6.878-9.695-19.571,5.321ZM2.52,13.842l15.247,28.7l12.655-3.433L14.306,12.275L2.52,13.842ZM47.77,24.208l6.052,8.534l7.527-2.047-6.548-8.154-7.031,1.667Z" fill="#ffd200"/></svg>
