<svg xmlns="http://www.w3.org/2000/svg" viewBox="0 0 24 24" id="Postgresql"><path d="M18.609 17.513c-.462 0-.891-.059-1.159-.223a.5.5 0 1 1 .521-.854c.338.201 2.084-.029 2.437-.193 1.042-.307 1.433-.746 1.529-.971-.086.019-.19.046-.282.07-.436.113-1.032.271-1.785.233-.861-.041-1.391-.321-1.551-.464a.499.499 0 0 1 .648-.761c.036.021.348.197.951.227.601.024 1.091-.101 1.484-.203.476-.125.968-.254 1.313.129.232.258.304.621.197.996-.205.72-1.008 1.345-2.148 1.673-.224.116-1.254.341-2.155.341zm-12.742-.548c-.38 0-.756-.172-1.12-.512-.833-.766-1.552-2.373-1.905-3.264-.472-1.223-.93-2.73-1.291-4.249-.319-1.292-.511-2.422-.536-2.87-.103-1.99.338-3.488 1.31-4.453C3.082.854 4.186.426 5.604.345a6.47 6.47 0 0 1 .924.001c1.288.052 2.534.397 3.356.652a.5.5 0 1 1-.295.955c-.49-.151-1.792-.556-3.123-.609-.136-.011-.27-.008-.406-.011a4.177 4.177 0 0 0-.389.009c-1.19.068-2.05.39-2.639.982-.764.759-1.106 2-1.019 3.693.019.333.189 1.388.509 2.688.352 1.48.795 2.941 1.25 4.119.546 1.376 1.149 2.433 1.654 2.896.125.116.288.263.45.244.064-.003.246-.044.533-.368.312-.347.794-.865 1.241-1.347l.807-.872a.5.5 0 0 1 .739.676l-.812.877c-.443.477-.921.991-1.228 1.332-.395.445-.811.683-1.234.701l-.055.002z" fill="#ffd200" class="color000000 svgShape"></path><path d="M14.172 24.001c-.567 0-1.032-.167-1.431-.509-.424-.365-.657-.86-.828-1.297-.079-.199-.146-.613-.183-.935a22.49 22.49 0 0 1-.106-1.496 60.893 60.893 0 0 1-.015-4.081 1.932 1.932 0 0 0-.067-.256c-.056-.153-.193-.432-.466-.547-.052-.023-.1-.05-.153-.081-.084-.05-.117-.067-.185-.067a.52.52 0 0 1-.495-.129.5.5 0 0 1-.145-.473c.103-.387.228-.769.351-1.074.051-.142.123-.307.202-.485.405-.925.959-2.191.362-5.006-.111-.52-.392-.894-.792-1.052-.351-.139-.781-.144-1.316-.02a4.91 4.91 0 0 0-1.266.503.499.499 0 0 1-.745-.484c.006-.069.171-1.673.555-2.709.381-1.033.926-1.856 1.62-2.447C9.924.632 10.951.279 12.21.276l.001.002h.121c2.335.039 4.342 1.069 5.812 2.979a8.917 8.917 0 0 1 1.168 2.015c.054.13.083.222.11.312.049.16.029.381-.078.51-.106.13-.259.24-.423.226-1.044-.109-1.76.055-2.125.483-.346.402-.408 1.03-.19 1.921.213.871.641 1.759.943 2.351.154.3.302.571.427.802l.035.064.009.015c.1.177.196.354.309.592a4.331 4.331 0 0 0 .636 1.078c.093.119.183.24.284.386a.503.503 0 0 1-.273.763 1.5 1.5 0 0 0-.202.073.764.764 0 0 0-.349.325c-.105.195-.149.476-.133.833-.05.712-.436 3.984-.627 5.121-.146.863-.39 1.437-.79 1.858-.417.44-1.002.726-1.898.922-.29.063-.557.094-.805.094zm-1.588-8.509c.009 0 .025.098.025.194a60.854 60.854 0 0 0-.028 1.814c0 .745.016 1.485.042 2.224.023.55.058 1.038.101 1.424.043.384.1.629.12.682.126.322.29.682.548.903.214.184.562.372 1.369.196.688-.151 1.116-.347 1.387-.633.256-.27.419-.682.53-1.337.184-1.088.568-4.347.615-4.97-.026-.488.056-.93.25-1.291.125-.234.308-.438.528-.596a5.29 5.29 0 0 1-.641-1.114 7.348 7.348 0 0 0-.238-.468c-.008-.013-.016-.025-.023-.039l.001-.001-.003-.006h-.001l-.01-.021-.004-.006v-.001a.558.558 0 0 1-.033-.1l-.021.005c-.128-.236-.28-.516-.438-.824-.518-1.011-.844-1.827-1.025-2.568-.299-1.227-.167-2.145.403-2.809.479-.561 1.198-.846 2.187-.864a7.816 7.816 0 0 0-.873-1.421c-1.296-1.685-2.988-2.556-5.028-2.59h-.114c-1.012.001-1.828.275-2.494.841-.56.477-1.008 1.16-1.329 2.031-.17.46-.295 1.074-.377 1.574.222-.083.446-.151.666-.203.74-.177 1.367-.153 1.914.063.712.281 1.223.928 1.404 1.773.663 3.13.008 4.625-.425 5.615-.069.158-.133.304-.184.442-.052.128-.104.27-.153.419.083.036.15.075.199.104.496.217.857.617 1.052 1.148.047.134.08.27.101.41z" fill="#ffd200" class="color000000 svgShape"></path><path d="M10.583 14.76c-1.078 0-2.124-.498-2.87-1.366a3.944 3.944 0 0 1-.922-3.16c.114-.793.159-1.624.134-2.468-.011-.644-.032-1.186-.032-1.188a.501.501 0 0 1 .48-.52c.275.004.509.204.519.48 0 0 .022.553.033 1.203.027.896-.021 1.784-.144 2.638a2.941 2.941 0 0 0 .691 2.361c.556.647 1.326 1.019 2.111 1.019a.5.5 0 0 1 0 1.001zm8.257.034a.507.507 0 0 1-.354-.146c-.204-.204-.174-.371-.061-.992.105-.584.283-1.562.309-2.459.011-.597-.054-1.176-.111-1.686-.049-.435-.091-.81-.08-1.132.031-.895.052-1.484-.072-2.501a.501.501 0 0 1 .436-.557.493.493 0 0 1 .557.436c.133 1.095.11 1.75.078 2.656-.008.248.03.59.075.985.061.541.13 1.154.118 1.822-.007.225-.021.451-.042.676.651-1.312 1.255-2.906 1.826-4.815.304-1.029.47-1.964.48-2.699.011-.781-.165-1.15-.234-1.227C20.482 1.738 18.649 1.014 16.319 1h-.178c-.362.006-.748.129-1.155.259-.292.093-.58.184-.864.237a.5.5 0 0 1-.186-.982c.246-.047.494-.127.746-.208.459-.147.934-.298 1.452-.306h.188c2.625.015 4.705.851 6.185 2.484.325.36.504 1.057.492 1.911-.012.826-.192 1.854-.522 2.971-.955 3.192-2.012 5.555-3.234 7.224a.5.5 0 0 1-.365.202c-.012.002-.025.002-.038.002z" fill="#ffd200" class="color000000 svgShape"></path><path d="M9.142 18.018c-.898 0-1.483-.192-1.779-.582a.857.857 0 0 1-.122-.841c.167-.419.595-.536 1.009-.649.254-.07.542-.149.846-.296.584-.283 1.5-1.225 1.805-1.563a.5.5 0 0 1 .744.668c-.125.14-1.249 1.377-2.114 1.796-.386.187-.735.282-1.016.359l-.109.03c.241.065.696.117 1.525.032 1.313-.139 1.688-1.019 1.704-1.056a.5.5 0 0 1 .932.363c-.023.061-.588 1.482-2.531 1.688a8.722 8.722 0 0 1-.894.051zm2.272-9.51c-.402 0-1.207-.076-1.82-.624-.513-.457-.773-1.119-.773-1.966a.5.5 0 0 1 1 0c0 .547.146.956.434 1.216.496.447 1.29.369 1.299.369a.496.496 0 0 1 .55.442.5.5 0 0 1-.439.552c-.014.001-.106.011-.251.011zm4.573.006a.5.5 0 0 1 0-1c.49 0 .847-.129 1.091-.396.439-.479.385-1.264.385-1.271a.5.5 0 1 1 .996-.086c.004.05.097 1.227-.644 2.034-.437.476-1.052.719-1.828.719z" fill="#ffd200" class="color000000 svgShape"></path></svg>