<svg id="ewHskIyjNnY1" xmlns="http://www.w3.org/2000/svg" xmlns:xlink="http://www.w3.org/1999/xlink" viewBox="0 0 111.68 111.102" shape-rendering="geometricPrecision" text-rendering="geometricPrecision"><path d="M55.585,0.072C27.233,0.072,29,12.367,29,12.367l.031,12.738h27.06v3.825h-37.8c0,0-18.146-2.057-18.146,26.55s15.836,27.595,15.836,27.595h9.451v-13.275c0,0-.509-15.836,15.583-15.836h26.834c0,0,15.077.244,15.077-14.571v-24.493c0,0,2.29-14.828-27.341-14.828ZM40.666,8.638c2.319616.002231,4.31475,1.642448,4.765588,3.917831s-.76814,4.552435-2.911657,5.438979-4.614789.135752-5.902893-1.793344-1.034416-4.49941.605962-6.139466c.913108-.912929,2.151797-1.425242,3.443-1.424Z" transform="translate(-.145-.072)" fill="#ffd200"/><path d="M93.526,147.328c28.353,0,26.583-12.3,26.583-12.3l-.031-12.738h-27.057v-3.82h37.8c0,0,18.143,2.058,18.143-26.551s-15.836-27.594-15.836-27.594h-9.448v13.275c0,0,.509,15.836-15.583,15.836h-26.835c0,0-15.077-.244-15.077,14.572v24.5c0,0-2.285,14.82,27.341,14.82Zm14.919-8.565c-2.320133-.001557-4.316176-1.641585-4.767727-3.917353s.767112-4.553648,2.910886-5.440921s4.615781-.136898,5.90461,1.792335s1.035637,4.500181-.604769,6.140939c-.912944.913296-2.151654,1.425977-3.443,1.425Z" transform="translate(-37.281-36.223)" fill="#ffd200"/></svg>
