<svg id="ef8b0ihB42v1" xmlns="http://www.w3.org/2000/svg" xmlns:xlink="http://www.w3.org/1999/xlink" viewBox="0 0 24 24" shape-rendering="geometricPrecision" text-rendering="geometricPrecision"><path d="M18.5,9.51c-.749946-.258291-1.411916-.72271-1.91-1.34C15.477542,6.776229,13.783127,5.975166,12,6c-2.454528-.173829-4.63079,1.567181-5,4c.719471-1.203839,2.133578-1.805844,3.5-1.49.748691.265808,1.409583.73293,1.91,1.35C13.528477,11.242539,15.221974,12.0321,17,12c2.454528.173829,4.63079-1.567181,5-4-.706908,1.219094-2.128116,1.832243-3.5,1.51Zm-13,4.98c.749946.258291,1.411916.72271,1.91,1.34C8.522458,17.223771,10.216873,18.024834,12,18c2.454528.173829,4.63079-1.567181,5-4-.719471,1.203839-2.133578,1.805844-3.5,1.49-.748691-.265808-1.409583-.73293-1.91-1.35C10.468689,12.761092,8.777067,11.972405,7,12c-2.454528-.173829-4.63079,1.567181-5,4c.706908-1.219094,2.128116-1.832243,3.5-1.51Z" fill="#ffd200"/></svg>
