<svg xmlns="http://www.w3.org/2000/svg" width="36" height="32" viewBox="0 0 36 32">
    <g fill="none" fill-rule="evenodd">
        <g fill="#FFF">
            <g>
                <path d="M23.509 2.502h11.754V0H23.509v2.502zM0 2.502h11.754V0H0v2.502zm23.509 4.902h11.754V4.919H23.509v2.485zM0 7.404h11.754V4.919H0v2.485zm23.509 4.92h11.754V9.839H23.509v2.485zM0 12.324h11.754V9.839H0v2.485zm0 4.919h35.262v-2.485H0v2.485zm23.509 4.919h11.754v-2.485H23.509v2.485zM0 22.162h11.754v-2.485H0v2.485zm23.509 4.919h11.754v-2.485H23.509v2.485zM0 27.08h11.754v-2.485H0v2.485zM23.509 32h11.754v-2.484H23.509V32zM0 32h11.754v-2.484H0V32z" transform="translate(-33 -32) translate(33 32)"/>
            </g>
        </g>
    </g>
</svg>
